REM GENRE "progressive goa trance"
REM DATE 2006
REM DISCID 7D11B209
REM COMMENT "ExactAudioCopy v0.95b4"
PERFORMER "Vibrasphere"
TITLE "Archipelago"
FILE "01-Vibrasphere - Tierra azul-2006.wav" WAVE
  TRACK 01 AUDIO
    TITLE "Tierra azul"
    PERFORMER "Vibrasphere"
    INDEX 01 00:00:00
  TRACK 02 AUDIO
    TITLE "Sweet september"
    PERFORMER "Vibrasphere"
    INDEX 00 06:55:59
FILE "02-Vibrasphere - Sweet september-2006.wav" WAVE
    INDEX 01 00:00:00
FILE "03-Vibrasphere - Reservoir-2006.wav" WAVE
  TRACK 03 AUDIO
    TITLE "Reservoir"
    PERFORMER "Vibrasphere"
    INDEX 01 00:00:00
  TRACK 04 AUDIO
    TITLE "Landmark"
    PERFORMER "Vibrasphere"
    INDEX 00 08:39:26
FILE "04-Vibrasphere - Landmark-2006.wav" WAVE
    INDEX 01 00:00:00
  TRACK 05 AUDIO
    TITLE "Seven days to daylight"
    PERFORMER "Vibrasphere"
    INDEX 00 08:36:28
FILE "05-Vibrasphere - Seven days to daylight-2006.wav" WAVE
    INDEX 01 00:00:00
  TRACK 06 AUDIO
    TITLE "Morning breath"
    PERFORMER "Vibrasphere"
    INDEX 00 09:08:19
FILE "06-Vibrasphere - Morning breath-2006.wav" WAVE
    INDEX 01 00:00:00
  TRACK 07 AUDIO
    TITLE "Sudden comfort"
    PERFORMER "Vibrasphere"
    INDEX 00 08:32:42
FILE "07-Vibrasphere - Sudden comfort-2006.wav" WAVE
    INDEX 01 00:00:00
  TRACK 08 AUDIO
    TITLE "Baltic resonance"
    PERFORMER "Vibrasphere"
    INDEX 00 09:24:28
FILE "08-Vibrasphere - Baltic resonance-2006.wav" WAVE
    INDEX 01 00:00:00
FILE "09-Vibrasphere - Late winter storms-2006.wav" WAVE
  TRACK 09 AUDIO
    TITLE "Late winter storm"
    PERFORMER "Vibrasphere"
    INDEX 01 00:00:00
